<svg xmlns="http://www.w3.org/2000/svg" viewBox="0 0 512 512" fill="#4CAF50">
  <path d="M256,0C114.84,0,0,114.84,0,256S114.84,512,256,512,512,397.16,512,256,397.16,0,256,0ZM173.71,106.67c20.1,0,36.4,35.79,36.4,80s-16.3,80-36.4,80-36.4-35.79-36.4-80S153.61,106.67,173.71,106.67Zm82.29,320c-33.86,0-66.29-19.33-66.29-43.27s32.43-23.94,66.29-23.94,66.29,0,66.29,23.94S289.86,426.67,256,426.67ZM338.29,266.67c-20.1,0-36.4-35.79-36.4-80s16.3-80,36.4-80,36.4,35.79,36.4,80S358.4,266.67,338.29,266.67Zm48-10.67c-14.83,0-26.86-26.42-26.86-59.05s12-59.05,26.86-59.05,26.86,26.42,26.86,59.05S401.15,256,386.32,256Zm-260.64,0c-14.83,0-26.86-26.42-26.86-59.05s12-59.05,26.86-59.05,26.86,26.42,26.86,59.05S140.51,256,125.68,256Z"/>
</svg> 