<svg xmlns="http://www.w3.org/2000/svg" viewBox="0 0 300 200">
  <!-- Gold gradient -->
  <defs>
    <linearGradient id="gold" x1="0%" y1="0%" x2="100%" y2="100%">
      <stop offset="0%" style="stop-color:#D4AF37"/>
      <stop offset="100%" style="stop-color:#F0C75E"/>
    </linearGradient>
  </defs>

  <!-- Two dog silhouettes with blue collar/detail -->
  <g transform="translate(100, 30)">
    <!-- Upper dog - golden retriever style -->
    <path d="M45,10 C65,5 80,15 75,25 C70,35 60,30 55,25 C50,20 40,25 45,35 C50,45 70,50 75,45 C80,40 85,30 80,20 C75,10 55,0 40,10 C25,20 25,40 30,50 C35,60 40,65 35,70 C30,75 25,85 30,90 C35,95 45,85 50,75 C55,65 65,60 70,65" fill="url(#gold)"/>
    
    <!-- Blue collar/detail for upper dog -->
    <path d="M42,12 C60,8 75,18 72,25 C69,32 60,28 56,25 C52,22 44,24 48,32" stroke="#1A4269" stroke-width="4" fill="none"/>
    
    <!-- Eye for upper dog -->
    <circle cx="63" cy="22" r="2" fill="#1A4269"/>
    
    <!-- Lower dog - smaller silhouette -->
    <path d="M45,80 C65,75 80,85 75,95 C70,105 60,100 55,95 C50,90 40,95 45,105 C50,115 70,120 75,115 C80,110 85,100 80,90 C75,80 55,70 40,80 C25,90 25,110 30,120 C35,130 40,135 35,140 C30,145 25,155 30,160 C35,165 45,155 50,145 C55,135 65,130 70,135" fill="url(#gold)" transform="scale(0.75) translate(20, 50)"/>
    
    <!-- Blue collar/detail for lower dog -->
    <path d="M54,95 C67,92 78,99 74,104 C70,109 63,106 60,104 C57,102 51,103 54,109" stroke="#1A4269" stroke-width="3" fill="none"/>
    
    <!-- Eye for lower dog -->
    <circle cx="62" cy="98" r="1.5" fill="#1A4269"/>
  </g>
</svg> 